<?xml version="1.0" encoding="utf-8"?>
<!-- Generator: Adobe Illustrator 15.0.2, SVG Export Plug-In . SVG Version: 6.00 Build 0)  -->
<!DOCTYPE svg PUBLIC "-//W3C//DTD SVG 1.1//EN" "http://www.w3.org/Graphics/SVG/1.1/DTD/svg11.dtd">
<svg version="1.1" id="Camada_1" xmlns="http://www.w3.org/2000/svg" xmlns:xlink="http://www.w3.org/1999/xlink" x="0px" y="0px"
	 width="264px" height="60px" viewBox="0 0 264 60" enable-background="new 0 0 264 60" xml:space="preserve">
<g>
	<polyline fill="#009EE2" points="17.143,0 12.857,0 12.857,4.286 17.143,4.286 17.143,0 	"/>
	<polyline fill="#009EE2" points="12.857,0 8.572,0 8.572,4.286 12.857,4.286 12.857,0 	"/>
	<polyline fill="#33B1E8" points="21.429,0 17.143,0 17.143,4.286 21.429,4.286 21.429,0 	"/>
	<polyline fill="#33B1E8" points="25.714,0 21.429,0 21.429,4.286 25.714,4.286 25.714,0 	"/>
	<polyline fill="#009EE2" points="30,0 25.714,0 25.714,4.286 30,4.286 30,0 	"/>
	<polyline fill="#009EE2" points="12.857,4.286 12.857,4.286 8.572,4.286 8.572,8.571 12.857,8.571 12.857,4.286 	"/>
	<polyline fill="#66C5EE" points="8.572,4.286 4.286,4.286 4.286,8.571 8.572,8.571 8.572,4.286 	"/>
	<polyline fill="#009EE2" points="17.143,4.286 17.143,4.286 12.857,4.286 12.857,8.571 17.143,8.571 17.143,4.286 	"/>
	<polyline fill="#33B1E8" points="21.429,4.286 21.429,4.286 17.143,4.286 17.143,8.571 21.429,8.571 21.429,4.286 	"/>
	<polyline fill="#33B1E8" points="25.714,4.286 25.714,4.286 21.429,4.286 21.429,8.571 25.714,8.571 25.714,4.286 	"/>
	<polyline fill="#009EE2" points="30,4.286 30,4.286 25.714,4.286 25.714,8.571 30,8.571 30,4.286 	"/>
	<polyline fill="#009EE2" points="34.284,4.286 30,4.286 30,8.571 34.284,8.571 34.284,4.286 	"/>
	<polyline fill="#009EE2" points="30,21.428 25.714,25.714 30,25.714 30,21.428 	"/>
	<polyline fill="#009EE2" points="12.857,17.143 8.572,17.143 8.572,21.428 12.857,21.428 12.857,17.143 	"/>
	<polyline fill="#009EE2" points="17.143,17.143 12.857,17.143 12.857,21.428 17.143,21.428 17.143,17.143 	"/>
	<polyline fill="#66C5EE" points="21.429,17.143 17.143,17.143 17.143,21.428 21.429,21.428 21.429,17.143 	"/>
	<polyline fill="#66C5EE" points="25.714,17.143 21.429,17.143 21.429,21.428 25.714,17.143 	"/>
	<polyline fill="#009EE2" points="34.284,17.145 30,21.428 34.284,21.428 34.284,17.145 	"/>
	<polyline fill="#009EE2" points="12.857,21.428 12.857,21.428 8.572,21.428 8.572,25.714 12.857,21.428 	"/>
	<polyline fill="#009EE2" points="17.143,21.428 17.143,21.428 12.857,21.428 17.143,25.714 17.143,21.428 	"/>
	<polyline fill="#66C5EE" points="21.429,21.428 17.143,21.428 17.143,25.714 21.429,21.428 	"/>
	<polyline fill="#009EE2" points="34.284,21.428 30,21.428 30,25.714 34.284,25.714 34.284,21.428 	"/>
	<polyline fill="#33B1E8" points="8.572,25.714 8.572,25.714 8.572,30 12.857,30 8.572,25.714 	"/>
	<polyline fill="#009EE2" points="25.714,25.714 21.429,30 25.714,30 25.714,25.714 	"/>
	<polyline fill="#66C5EE" points="30,25.714 30,25.714 25.714,25.714 25.714,30 30,30 30,25.714 	"/>
	<polyline fill="#66C5EE" points="34.284,25.714 30,25.714 30,30 34.284,30 34.284,25.714 	"/>
	<polyline fill="#33B1E8" points="12.857,30 12.857,30 8.572,30 8.572,34.285 12.857,34.285 12.857,30 	"/>
	<polyline fill="#33B1E8" points="12.857,30 12.857,34.285 17.143,34.285 12.857,30 	"/>
	<polyline fill="#009EE2" points="21.429,30 17.143,34.285 21.429,34.285 21.429,30 	"/>
	<polyline fill="#009EE2" points="25.714,30 25.714,30 21.429,30 21.429,34.285 25.714,34.285 25.714,30 	"/>
	<polyline fill="#66C5EE" points="30,30 30,30 25.714,30 25.714,34.285 30,34.285 30,30 	"/>
	<polyline fill="#66C5EE" points="34.284,30 30,30 30,34.285 34.284,34.285 34.284,30 	"/>
	<polyline fill="#009EE2" points="12.857,34.285 12.857,34.285 8.572,34.285 8.572,38.57 12.857,38.57 12.857,34.285 	"/>
	<polyline fill="#009EE2" points="17.143,34.285 17.143,34.285 12.857,34.285 12.857,38.57 17.143,38.57 17.143,34.285 	"/>
	<polyline fill="#33B1E8" points="21.429,34.285 21.429,34.285 17.143,34.285 17.143,38.57 21.429,38.57 21.429,34.285 	"/>
	<polyline fill="#33B1E8" points="25.714,34.285 25.714,34.285 21.429,34.285 21.429,38.57 25.714,38.57 25.714,34.285 	"/>
	<polyline fill="#009EE2" points="30,34.285 30,34.285 25.714,34.285 25.714,38.57 30,38.57 30,34.285 	"/>
	<polyline fill="#009EE2" points="34.284,34.285 30,34.285 30,38.57 34.284,38.57 34.284,34.285 	"/>
	<polyline fill="#66C5EE" points="12.857,8.571 12.857,8.571 8.572,8.571 8.572,12.857 12.857,12.857 12.857,8.571 	"/>
	<polyline fill="#66C5EE" points="17.143,8.571 17.143,8.571 12.857,8.571 12.857,12.857 17.143,12.857 17.143,8.571 	"/>
	<polyline fill="#009EE2" points="21.429,8.571 21.429,8.571 17.143,8.571 17.143,12.857 21.429,12.857 21.429,8.571 	"/>
	<polyline fill="#009EE2" points="25.714,8.571 25.714,8.571 21.429,8.571 21.429,12.857 25.714,12.857 25.714,8.571 	"/>
	<polyline fill="#33B1E8" points="30,8.571 30,8.571 25.714,8.571 25.714,12.857 30,12.857 30,8.571 	"/>
	<polyline fill="#33B1E8" points="34.284,8.571 30,8.571 30,12.857 34.284,12.857 34.284,8.571 	"/>
	<polyline fill="#009EE2" points="8.572,8.571 8.572,8.571 4.286,8.571 4.286,12.857 8.572,12.857 8.572,8.571 	"/>
	<polyline fill="#66C5EE" points="12.857,12.857 12.857,12.857 8.572,12.857 8.572,17.143 12.857,17.143 12.857,12.857 	"/>
	<polyline fill="#66C5EE" points="17.143,12.857 17.143,12.857 12.857,12.857 12.857,17.143 17.143,17.143 17.143,12.857 	"/>
	<polyline fill="#009EE2" points="21.429,12.857 21.429,12.857 17.143,12.857 17.143,17.143 21.429,17.143 21.429,12.857 	"/>
	<polyline fill="#009EE2" points="25.714,12.857 25.714,12.857 21.429,12.857 21.429,17.143 25.714,17.143 25.714,12.857 	"/>
	<polyline fill="#33B1E8" points="30,12.857 30,12.857 25.714,12.857 25.714,17.143 30,17.143 30,12.857 	"/>
	<polyline fill="#33B1E8" points="34.284,12.857 30,12.857 30,17.143 34.284,17.143 34.284,12.857 	"/>
	<polyline fill="#009EE2" points="8.572,12.857 8.572,12.857 4.286,12.857 4.286,17.143 8.572,17.143 8.572,12.857 	"/>
	<polyline fill="#33B1E8" points="8.572,17.143 4.286,17.143 4.286,21.428 8.572,21.428 8.572,17.143 	"/>
	<polyline fill="#33B1E8" points="8.572,21.428 4.286,21.428 4.286,25.714 8.572,25.714 8.572,21.428 	"/>
	<polyline fill="#009EE2" points="8.572,25.714 8.572,25.714 4.286,25.714 4.286,30 8.572,30 8.572,25.714 	"/>
	<polyline fill="#009EE2" points="8.572,30 8.572,30 4.286,30 4.286,34.285 8.572,34.285 8.572,30 	"/>
	<polyline fill="#66C5EE" points="8.572,34.285 4.286,34.285 4.286,38.57 8.572,38.57 8.572,34.285 	"/>
	<polyline fill="#009EE2" points="12.857,38.57 12.857,38.57 8.572,38.57 8.572,42.857 12.857,42.857 12.857,38.57 	"/>
	<polyline fill="#009EE2" points="17.143,38.57 17.143,38.57 12.857,38.57 12.857,42.857 17.143,42.857 17.143,38.57 	"/>
	<polyline fill="#33B1E8" points="21.429,38.57 21.429,38.57 17.143,38.57 17.143,42.857 21.429,42.857 21.429,38.57 	"/>
	<polyline fill="#33B1E8" points="25.714,38.57 25.714,38.57 21.429,38.57 21.429,42.857 25.714,42.857 25.714,38.57 	"/>
	<polyline fill="#009EE2" points="30,38.57 30,38.57 25.714,38.57 25.714,42.857 30,42.857 30,38.57 	"/>
	<polyline fill="#009EE2" points="34.284,38.57 30,38.57 30,42.857 34.284,42.857 34.284,38.57 	"/>
	<polyline fill="#66C5EE" points="8.572,38.57 4.286,38.57 4.286,42.857 8.572,42.857 8.572,38.57 	"/>
	<polyline fill="#009EE2" points="4.286,8.571 4.286,8.571 0,8.571 0,12.857 4.286,12.857 4.286,8.571 	"/>
	<polyline fill="#009EE2" points="4.286,12.857 4.286,12.857 0,12.857 0,17.143 4.286,17.143 4.286,12.857 	"/>
	<polyline fill="#33B1E8" points="4.286,17.143 0,17.143 0,21.428 4.286,21.428 4.286,17.143 	"/>
	<polyline fill="#33B1E8" points="4.286,21.428 0,21.428 0,25.714 4.286,25.714 4.286,21.428 	"/>
	<polyline fill="#009EE2" points="4.286,25.714 4.286,25.714 0,25.714 0,30 4.286,30 4.286,25.714 	"/>
	<polyline fill="#009EE2" points="4.286,30 4.286,30 0,30 0,34.285 4.286,34.285 4.286,30 	"/>
	<polyline fill="#66C5EE" points="4.286,34.285 0,34.285 0,38.57 4.286,38.57 4.286,34.285 	"/>
	<polyline fill="#66C5EE" points="4.286,38.57 0,38.57 0,42.857 4.286,42.857 4.286,38.57 	"/>
	<polyline fill="#66C5EE" points="12.857,42.857 12.857,42.857 8.572,42.857 8.572,47.143 12.857,47.143 12.857,42.857 	"/>
	<polyline fill="#66C5EE" points="17.143,42.857 17.143,42.857 12.857,42.857 12.857,47.143 17.143,47.143 17.143,42.857 	"/>
	<polyline fill="#009EE2" points="21.429,42.857 21.429,42.857 17.143,42.857 17.143,47.143 21.429,47.143 21.429,42.857 	"/>
	<polyline fill="#009EE2" points="25.714,42.857 25.714,42.857 21.429,42.857 21.429,47.143 25.714,47.143 25.714,42.857 	"/>
	<polyline fill="#33B1E8" points="30,42.857 30,42.857 25.714,42.857 25.714,47.143 30,47.143 30,42.857 	"/>
	<polyline fill="#33B1E8" points="34.284,42.857 30,42.857 30,47.143 34.284,47.143 34.284,42.857 	"/>
	<polyline fill="#66C5EE" points="17.143,47.143 17.143,47.143 12.857,47.143 12.857,51.428 17.143,51.428 17.143,47.143 	"/>
	<polyline fill="#009EE2" points="8.572,42.857 8.572,42.857 4.286,42.857 4.286,47.143 8.572,47.143 8.572,42.857 	"/>
	<polyline fill="#66C5EE" points="12.857,47.143 12.857,47.143 8.572,47.143 8.572,51.428 12.857,51.428 12.857,47.143 	"/>
	<polyline fill="#66C5EE" points="12.857,51.428 8.572,51.428 8.572,55.714 12.857,55.714 12.857,51.428 	"/>
	<polyline fill="#66C5EE" points="17.143,51.428 12.857,51.428 12.857,55.714 17.143,51.428 	"/>
	<polyline fill="#66C5EE" points="12.857,55.714 8.572,55.714 8.572,60 12.857,55.714 	"/>
	<polyline fill="#009EE2" points="21.429,47.143 21.429,47.143 17.143,47.143 17.143,51.428 21.429,51.428 21.429,47.143 	"/>
	<polyline fill="#009EE2" points="25.714,47.143 25.714,47.143 21.429,47.143 21.429,51.428 25.714,51.428 25.714,47.143 	"/>
	<polyline fill="#33B1E8" points="30,47.143 30,47.143 25.714,47.143 25.714,51.428 30,51.428 30,47.143 	"/>
	<polyline fill="#009EE2" points="34.284,0 30,0 30,4.286 34.284,4.286 34.286,4.286 34.284,4.286 34.284,0 	"/>
	<polyline fill="#33B1E8" points="34.284,47.143 30,47.143 30,51.428 34.286,51.428 34.284,51.428 34.284,47.143 	"/>
	<polyline fill="#F29100" points="47.142,4.286 42.854,4.286 42.854,8.571 47.142,8.571 47.142,4.286 	"/>
	<polyline fill="#F5A733" points="42.854,4.286 38.569,4.286 38.572,4.286 38.572,8.571 42.854,8.571 42.854,4.286 	"/>
	<polyline fill="#608130" points="38.572,4.286 38.569,4.286 38.569,8.571 38.572,8.571 38.572,4.286 	"/>
	<polyline fill="#F29100" points="51.427,4.286 47.142,4.286 47.142,8.571 51.427,8.571 51.427,4.286 	"/>
	<polyline fill="#F7BD66" points="55.712,4.286 51.427,4.286 51.427,8.571 55.712,8.571 55.712,4.286 	"/>
	<polyline fill="#F7BD66" points="59.998,4.286 55.712,4.286 55.712,8.571 59.998,8.571 59.998,4.286 	"/>
	<polyline fill="#005A00" points="38.572,8.571 38.569,8.571 38.569,12.857 38.572,12.857 38.572,8.571 	"/>
	<polyline fill="#005A00" points="42.854,8.571 38.572,8.571 38.572,12.857 42.854,12.857 42.854,8.571 	"/>
	<polyline fill="#F5A733" points="51.427,8.571 47.142,8.571 47.142,12.857 51.427,8.571 	"/>
	<polyline fill="#F29100" points="55.712,8.571 55.712,8.571 51.427,8.571 55.712,12.857 55.712,8.571 	"/>
	<polyline fill="#F29100" points="59.998,8.571 59.998,8.571 55.712,8.571 55.712,12.857 59.998,8.571 	"/>
	<polyline fill="#F7BD66" points="64.284,8.571 59.998,8.571 64.284,12.857 64.284,8.571 	"/>
	<polyline fill="#F5A733" points="47.142,8.571 47.142,8.571 42.854,8.571 42.857,8.571 42.857,12.857 47.142,12.857 47.142,8.571 	
		"/>
	<polyline fill="#00682D" points="42.857,8.571 42.854,8.571 42.854,12.857 42.857,12.857 42.857,8.571 	"/>
	<polyline fill="#F29100" points="64.284,4.286 59.998,4.286 59.998,8.571 64.284,8.571 64.284,4.286 	"/>
	<polyline fill="#F29100" points="47.142,0 42.854,0 42.854,4.286 47.142,4.286 47.142,0 	"/>
	<polyline fill="#F5A733" points="42.854,0 38.569,0 38.569,4.286 42.854,4.286 42.854,0 	"/>
	<polyline fill="#F29100" points="51.427,0 47.142,0 47.142,4.286 51.427,4.286 51.427,0 	"/>
	<polyline fill="#F7BD66" points="55.712,0 51.427,0 51.427,4.286 55.712,4.286 55.712,0 	"/>
	<polyline fill="#F7BD66" points="59.998,0 55.712,0 55.712,4.286 59.998,4.286 59.998,0 	"/>
	<polyline fill="#F29100" points="64.284,0 59.998,0 59.998,4.286 64.284,4.286 64.284,0 	"/>
	<polyline fill="#005A00" points="38.572,12.857 38.572,12.857 38.569,12.857 38.569,17.143 38.572,17.143 38.572,12.857 	"/>
	<polyline fill="#005A00" points="42.854,12.857 38.572,12.857 38.572,17.143 42.854,17.143 42.854,12.857 	"/>
	<polyline fill="#F5A733" points="47.142,12.857 47.142,12.857 47.142,17.143 51.427,17.143 47.142,12.857 	"/>
	<polyline fill="#F7BD66" points="64.284,12.857 64.284,12.857 59.998,17.143 64.284,17.143 64.284,12.857 	"/>
	<polyline fill="#F5A733" points="47.142,12.857 42.857,12.857 42.857,17.143 47.142,17.143 47.142,12.857 	"/>
	<polyline fill="#00682D" points="42.857,12.857 42.857,12.857 42.854,12.857 42.854,17.143 42.857,17.143 42.857,12.857 	"/>
	<polyline fill="#31845D" points="38.572,17.143 38.569,17.143 38.569,21.428 38.572,21.428 38.572,17.143 	"/>
	<polyline fill="#31845D" points="42.854,17.143 38.572,17.143 38.572,21.428 42.854,21.428 42.854,17.143 	"/>
	<polyline fill="#F29100" points="51.427,17.143 51.427,17.143 47.142,17.143 47.142,21.428 51.427,17.143 	"/>
	<polyline fill="#F29100" points="64.284,17.143 64.284,17.143 59.998,17.143 64.284,21.428 64.284,17.143 	"/>
	<polyline fill="#F29100" points="47.142,17.143 47.142,17.143 42.857,17.143 42.854,17.143 42.857,17.143 42.857,21.428 
		47.142,21.428 47.142,17.143 	"/>
	<polyline fill="#306500" points="42.857,17.143 42.854,17.143 42.854,21.428 42.857,21.428 42.857,17.143 	"/>
	<polyline fill="#31845D" points="38.572,21.428 38.572,21.428 38.569,21.428 38.569,25.714 38.572,25.714 38.572,21.428 	"/>
	<polyline fill="#31845D" points="42.854,21.428 38.572,21.428 38.572,25.714 42.854,25.714 42.854,21.428 	"/>
	<polyline fill="#F29100" points="47.142,21.428 47.142,25.714 51.427,25.714 47.142,21.428 	"/>
	<polyline fill="#F5A733" points="55.712,21.428 51.427,25.714 55.712,25.714 55.712,21.428 	"/>
	<polyline fill="#F5A733" points="55.712,21.428 55.712,25.714 59.998,25.714 55.712,21.428 	"/>
	<polyline fill="#F29100" points="64.284,21.428 64.284,21.428 59.998,25.714 64.284,25.714 64.284,21.428 	"/>
	<polyline fill="#005A00" points="38.572,25.714 38.572,25.714 38.569,25.714 38.569,30 38.572,30 38.572,25.714 	"/>
	<polyline fill="#005A00" points="42.854,25.714 38.572,25.714 38.572,30 42.854,30 42.854,25.714 	"/>
	<polyline fill="#F7BD66" points="47.142,25.714 42.857,25.714 42.857,30 47.142,30 47.142,25.714 	"/>
	<polyline fill="#00755A" points="42.857,25.714 42.857,25.714 42.854,25.714 42.854,30 42.857,30 42.857,25.714 	"/>
	<polyline fill="#F7BD66" points="51.427,25.714 51.427,25.714 47.142,25.714 47.142,30 51.427,30 51.427,25.714 	"/>
	<polyline fill="#F7BD66" points="51.427,30 51.427,30 47.142,30 47.142,34.285 51.427,34.285 51.427,30 	"/>
	<polyline fill="#F29100" points="51.427,34.285 51.427,34.285 47.142,34.285 47.142,38.57 51.427,38.57 51.427,34.285 	"/>
	<polyline fill="#F29100" points="55.712,25.714 55.712,25.714 51.427,25.714 51.427,30 55.712,30 55.712,25.714 	"/>
	<polyline fill="#F29100" points="59.998,25.714 59.998,25.714 55.712,25.714 55.712,30 59.998,30 59.998,25.714 	"/>
	<polyline fill="#F29100" points="47.142,21.428 47.142,21.428 42.857,21.428 42.857,25.714 47.142,25.714 47.142,21.428 	"/>
	<polyline fill="#306500" points="42.857,21.428 42.857,21.428 42.854,21.428 42.854,25.714 42.857,25.714 42.857,21.428 	"/>
	<polyline fill="#F5A733" points="64.284,25.714 64.284,25.714 59.998,25.714 59.998,30 64.284,30 64.284,25.714 	"/>
	<polyline fill="#F7BD66" points="68.569,8.571 64.284,8.571 64.284,12.857 68.569,12.857 68.569,8.571 	"/>
	<polyline fill="#F29100" points="68.569,4.286 64.284,4.286 64.284,8.571 68.569,8.571 68.569,4.286 	"/>
	<polyline fill="#F7BD66" points="68.569,12.857 68.569,12.857 64.284,12.857 64.284,17.143 68.569,17.143 68.569,12.857 	"/>
	<polyline fill="#F29100" points="68.569,17.143 68.569,17.143 64.284,17.143 64.284,21.428 68.569,21.428 68.569,17.143 	"/>
	<polyline fill="#F29100" points="68.569,21.428 68.569,21.428 64.284,21.428 64.284,25.714 68.569,25.714 68.569,21.428 	"/>
	<polyline fill="#F5A733" points="68.569,25.714 68.569,25.714 64.284,25.714 64.284,30 68.569,30 68.569,25.714 	"/>
	<polyline fill="#F29100" points="55.712,30 55.712,30 51.427,30 51.427,34.285 55.712,34.285 55.712,30 	"/>
	<polyline fill="#F29100" points="59.998,30 59.998,30 55.712,30 55.712,34.285 59.998,34.285 59.998,30 	"/>
	<polyline fill="#F5A733" points="64.284,30 64.284,30 59.998,30 59.998,34.285 64.284,34.285 64.284,30 	"/>
	<polyline fill="#F29100" points="68.569,0 64.284,0 64.284,4.286 68.569,4.286 68.569,0 	"/>
	<polyline fill="#F5A733" points="72.854,4.286 68.569,4.286 68.569,8.571 72.854,8.571 72.854,4.286 	"/>
	<polyline fill="#F29100" points="72.854,25.714 68.569,25.714 68.569,30 72.854,30 72.854,25.714 	"/>
	<polyline fill="#F5A733" points="68.569,30 68.569,30 64.284,30 64.284,34.285 68.569,34.285 68.569,30 	"/>
	<polyline fill="#F29100" points="72.854,8.571 72.854,8.571 68.569,8.571 68.569,12.857 72.854,12.857 72.854,8.571 	"/>
	<polyline fill="#F29100" points="72.854,12.857 72.854,12.857 68.569,12.857 68.569,17.143 72.854,17.143 72.854,12.857 	"/>
	<polyline fill="#F7BD66" points="72.854,17.143 72.854,17.143 68.569,17.143 68.569,21.428 72.854,21.428 72.854,17.143 	"/>
	<polyline fill="#F7BD66" points="72.854,21.428 72.854,21.428 68.569,21.428 68.569,25.714 72.854,25.714 72.854,21.428 	"/>
	<polyline fill="#F29100" points="77.142,8.571 72.854,8.571 72.854,12.857 77.142,12.857 77.142,8.571 	"/>
	<polyline fill="#F29100" points="77.142,12.857 77.142,12.857 72.854,12.857 72.854,17.143 77.142,17.143 77.142,12.857 	"/>
	<polyline fill="#F7BD66" points="77.142,17.143 77.142,17.143 72.854,17.143 72.854,21.428 77.142,21.428 77.142,17.143 	"/>
	<polyline fill="#F7BD66" points="77.142,21.428 77.142,21.428 72.854,21.428 72.854,25.714 77.142,25.714 77.142,21.428 	"/>
	<polyline fill="#005A00" points="38.572,30 38.572,30 38.569,30 38.569,34.285 38.572,34.285 38.572,30 	"/>
	<polyline fill="#005A00" points="42.854,30 38.572,30 38.572,34.285 42.854,34.285 42.854,30 	"/>
	<polyline fill="#F7BD66" points="47.142,30 47.142,30 42.857,30 42.857,34.285 47.142,34.285 47.142,30 	"/>
	<polyline fill="#00755A" points="42.857,30 42.857,30 42.854,30 42.854,34.285 42.857,34.285 42.857,30 	"/>
	<polyline fill="#617000" points="42.857,34.285 42.857,34.285 42.854,34.285 42.854,38.57 42.857,38.57 42.857,34.285 	"/>
	<polyline fill="#F29100" points="47.142,34.285 47.142,34.285 42.857,34.285 42.857,38.57 47.142,38.57 47.142,34.285 	"/>
	<polyline fill="#608130" points="38.572,34.285 38.572,34.285 38.569,34.285 38.569,38.57 38.572,38.57 38.572,34.285 	"/>
	<polyline fill="#608130" points="42.854,34.285 38.572,34.285 38.572,38.57 42.854,38.57 42.854,34.285 	"/>
	<polyline fill="#F29100" points="51.427,38.57 51.427,38.57 47.142,38.57 47.142,42.857 51.427,42.857 51.427,38.57 	"/>
	<polyline fill="#608130" points="38.572,38.57 38.572,38.57 38.569,38.57 38.569,42.857 38.572,42.857 38.572,38.57 	"/>
	<polyline fill="#608130" points="42.854,38.57 38.572,38.57 38.572,42.857 42.854,42.857 42.854,38.57 	"/>
	<polyline fill="#F29100" points="47.142,38.57 47.142,38.57 42.857,38.57 42.857,42.857 47.142,42.857 47.142,38.57 	"/>
	<polyline fill="#617000" points="42.857,38.57 42.857,38.57 42.854,38.57 42.854,42.857 42.857,42.857 42.857,38.57 	"/>
	<polyline fill="#F5A733" points="47.142,42.857 42.857,42.857 42.854,42.857 42.854,47.143 47.142,47.143 47.142,42.857 	"/>
	<polyline fill="#F5A733" points="47.142,47.143 47.142,47.143 42.854,47.143 42.854,51.428 47.142,51.428 47.142,47.143 	"/>
	<polyline fill="#F5A733" points="51.427,42.857 51.427,42.857 47.142,42.857 47.142,47.143 51.427,47.143 51.427,42.857 	"/>
	<polyline fill="#F29100" points="42.854,42.857 38.572,42.857 38.572,47.143 42.854,47.143 42.854,42.857 	"/>
	<polyline fill="#005A00" points="38.572,42.857 38.572,42.857 38.569,42.857 38.569,47.143 38.572,47.143 38.572,42.857 	"/>
	<polyline fill="#F29100" points="42.854,47.143 42.854,47.143 38.572,47.143 38.569,47.143 38.569,51.428 42.854,51.428 
		42.854,47.143 	"/>
	<polyline fill="#00682D" points="34.286,4.286 34.284,4.286 34.284,8.571 34.286,8.571 34.286,4.286 	"/>
	<polyline fill="#608130" points="38.569,4.286 34.286,4.286 34.286,8.571 38.569,8.571 38.569,4.286 	"/>
	<polyline fill="#306500" points="34.286,8.571 34.286,8.571 34.284,8.571 34.284,12.857 34.286,12.857 34.286,8.571 	"/>
	<polyline fill="#005A00" points="38.569,8.571 34.286,8.571 34.286,12.857 38.569,12.857 38.569,8.571 	"/>
	<polyline fill="#F5A733" points="38.569,0 34.284,0 34.286,0 34.286,4.286 38.569,4.286 38.569,0 	"/>
	<polyline fill="#00682D" points="34.286,0 34.284,0 34.284,4.286 34.286,4.286 34.286,0 	"/>
	<polyline fill="#306500" points="34.286,12.857 34.286,12.857 34.284,12.857 34.284,17.143 34.286,17.143 34.286,12.857 	"/>
	<polyline fill="#005A00" points="38.569,12.857 34.286,12.857 34.286,17.143 38.569,17.143 38.569,12.857 	"/>
	<polyline fill="#F7BD66" points="38.569,17.143 34.286,17.143 34.284,17.143 34.284,17.145 34.286,17.143 34.286,21.428 
		34.286,17.143 38.569,17.143 	"/>
	<polyline fill="#00755A" points="34.286,17.143 34.284,17.145 34.284,21.428 34.286,21.428 34.286,17.143 	"/>
	<polyline fill="#31845D" points="38.569,17.143 34.286,17.143 34.286,21.428 38.569,21.428 38.569,17.143 	"/>
	<polyline fill="#00755A" points="34.286,21.428 34.284,21.428 34.284,25.714 34.286,25.714 34.286,21.428 	"/>
	<polyline fill="#31845D" points="38.569,21.428 34.286,21.428 34.286,25.714 38.569,25.714 38.569,21.428 	"/>
	<polyline fill="#617000" points="34.286,25.714 34.286,25.714 34.284,25.714 34.284,30 34.286,30 34.286,25.714 	"/>
	<polyline fill="#005A00" points="38.569,25.714 34.286,25.714 34.286,30 38.569,30 38.569,25.714 	"/>
	<polyline fill="#617000" points="34.286,30 34.286,30 34.284,30 34.284,34.285 34.286,34.285 34.286,30 	"/>
	<polyline fill="#005A00" points="38.569,30 34.286,30 34.286,34.285 38.569,34.285 38.569,30 	"/>
	<polyline fill="#00682D" points="34.286,34.285 34.284,34.285 34.284,38.57 34.286,38.57 34.286,34.285 	"/>
	<polyline fill="#608130" points="38.569,34.285 34.286,34.285 34.286,38.57 38.569,38.57 38.569,34.285 	"/>
	<polyline fill="#00682D" points="34.286,38.57 34.284,38.57 34.284,42.857 34.286,42.857 34.286,38.57 	"/>
	<polyline fill="#608130" points="38.569,38.57 34.286,38.57 34.286,42.857 38.569,42.857 38.569,38.57 	"/>
	<polyline fill="#F5A733" points="51.427,47.143 51.427,47.143 47.142,47.143 47.142,51.428 51.427,51.428 51.427,47.143 	"/>
	<polyline fill="#306500" points="34.286,42.857 34.286,42.857 34.284,42.857 34.284,47.143 34.286,47.143 34.286,42.857 	"/>
	<polyline fill="#005A00" points="38.569,42.857 34.286,42.857 34.286,47.143 38.569,47.143 38.569,42.857 	"/>
	<polyline fill="#F29100" points="38.569,47.143 34.286,47.143 34.286,51.428 38.569,51.428 38.569,47.143 	"/>
	<polyline fill="#306500" points="34.286,47.143 34.286,47.143 34.284,47.143 34.284,51.428 34.286,51.428 34.286,47.143 	"/>
</g>
<g>
	<g>
		<path fill="#525257" d="M111.207,31.359v9.674c0,7.302-6.977,10.465-12.512,10.465H88.276c-1.07,0-1.349-0.512-1.349-1.35V22.243
			c0-0.837,0.279-1.349,1.349-1.349h10.418C104.229,20.894,111.207,24.104,111.207,31.359z M103.904,32.012
			c0-2.932-2.14-4.652-5.209-4.652H94.23v17.674h4.465c3.07,0,5.209-1.675,5.209-4.651V32.012z"/>
		<path fill="#525257" d="M131.438,46.477v3.674c0,0.838-0.279,1.349-1.349,1.349h-13.163c-1.07,0-1.348-0.511-1.348-1.349v-3.674
			c0-0.838,0.278-1.35,1.348-1.35h2.931V27.359h-2.837c-1.07,0-1.349-0.512-1.349-1.349v-3.768c0-0.837,0.279-1.349,1.349-1.349
			h12.931c1.069,0,1.348,0.511,1.348,1.349v3.768c0,0.837-0.279,1.349-1.348,1.349h-2.791v17.768h2.93
			C131.159,45.127,131.438,45.639,131.438,46.477z"/>
		<path fill="#525257" d="M161.156,35.777v6.746c-0.42,6.697-7.209,9.674-12.512,9.674c-5.488,0-12.512-2.791-12.512-10.094V30.661
			c0-7.349,7.023-10.465,12.512-10.465c5.813,0,12.512,3.349,12.512,9.582c0,1.117-0.279,1.303-1.35,1.303h-4.511
			c-1.303,0-1.116-0.931-1.349-1.582c-0.512-1.442-2.188-2.837-5.303-2.837c-3.069,0-5.117,2.046-5.117,5.023v9.349
			c0,2.978,2.047,4.698,5.117,4.698c3.022,0,5.162-1.396,5.162-4.978h-4.186c-1.07,0-1.35-0.512-1.35-1.349v-3.629
			c0-0.836,0.279-1.348,1.35-1.348h10.186C160.877,34.43,161.156,34.939,161.156,35.777z"/>
		<path fill="#525257" d="M181.762,46.477v3.674c0,0.838-0.277,1.349-1.349,1.349H167.25c-1.07,0-1.35-0.511-1.35-1.349v-3.674
			c0-0.838,0.279-1.35,1.35-1.35h2.93V27.359h-2.837c-1.069,0-1.349-0.512-1.349-1.349v-3.768c0-0.837,0.279-1.349,1.349-1.349
			h12.931c1.069,0,1.349,0.511,1.349,1.349v3.768c0,0.837-0.279,1.349-1.349,1.349h-2.791v17.768h2.93
			C181.482,45.127,181.762,45.639,181.762,46.477z"/>
		<path fill="#525257" d="M209.622,22.243v3.86c0,0.837-0.279,1.349-1.349,1.349h-7.117v22.696c0,1.07-0.512,1.35-1.35,1.35h-4.604
			c-0.837,0-1.35-0.279-1.35-1.35V27.452h-7.162c-1.07,0-1.35-0.512-1.35-1.349v-3.86c0-0.837,0.278-1.349,1.35-1.349h21.582
			C209.342,20.894,209.622,21.405,209.622,22.243z"/>
		<path fill="#525257" d="M236.925,51.499h-4.883c-1.022,0-1.396-0.278-1.769-1.396l-1.303-3.674h-11.395l-1.303,3.674
			c-0.373,1.117-0.746,1.396-1.768,1.396h-4.885c-1.021,0-1.021-0.744-0.79-1.302l10.326-27.861
			c0.372-0.977,0.883-1.442,1.907-1.442h4.465c1.023,0,1.488,0.465,1.906,1.442l10.279,27.861
			C237.947,50.754,237.947,51.499,236.925,51.499z M226.786,39.917l-3.489-10.279l-3.488,10.279H226.786z"/>
		<path fill="#525257" d="M263.904,46.336v3.812c0,0.838-0.279,1.35-1.35,1.35h-19.35c-1.07,0-1.35-0.512-1.35-1.35V22.243
			c0-1.069,0.513-1.349,1.35-1.349h4.604c0.836,0,1.35,0.279,1.35,1.349v22.745h13.396
			C263.625,44.986,263.904,45.499,263.904,46.336z"/>
	</g>
</g>
<text transform="matrix(1 0 0 1 86.9277 8.7539)" fill="#009EE2" font-family="'Archive'" font-size="12.9639">Orçamento </text>
<text transform="matrix(1 0 0 1 166.8369 8.7539)" fill="#F29100" font-family="'Archive'" font-size="12.9639">Participativo</text>
</svg>
